# Blender v2.77 (sub 0) OBJ File: ''
# www.blender.org
mtllib Concrete Wall.mtl
o Mesh_0068.002
v 3.250001 4.000000 1.500003
v 3.250001 -0.000000 1.500000
v -9.750006 -0.000000 1.500003
v -9.750006 4.000000 1.500007
v 9.750006 4.000004 -1.499997
v 9.750005 4.000000 1.500005
v 3.250001 4.000004 -1.499997
v -9.750006 4.000004 -1.500000
v -9.750006 0.000000 -1.500003
v 3.250003 0.000000 -1.500002
v 9.750002 0.000000 -1.500003
v 9.750005 -0.000000 1.500002
vt 0.9961 0.9961
vt 0.9961 0.5977
vt 0.0039 0.5977
vt 0.0039 0.9961
vt 0.5039 0.9961
vt 0.5039 0.5977
vt 0.0039 0.5977
vt 0.0039 0.9961
vt 0.0039 0.5977
vt 0.2852 0.5977
vt 0.2852 0.1992
vt 0.0039 0.1992
vt 0.9961 0.9961
vt 0.9961 0.5977
vt 0.0039 0.5977
vt 0.0039 0.9961
vt 0.0039 0.9961
vt 0.5039 0.9961
vt 0.5039 0.5977
vt 0.0039 0.5977
vt 0.0039 0.5977
vt 0.2852 0.5977
vt 0.2852 0.1992
vt 0.0039 0.1992
vt 0.9961 0.5977
vt 0.0039 0.5977
vt 0.9961 0.9961
vt 0.5039 0.5977
vt 0.0039 0.5977
vt 0.0039 0.9961
vt 0.5039 0.9961
vn 0.0000 0.0000 -1.0000
vn 0.0000 -1.0000 -0.0000
vn 1.0000 -0.0000 0.0000
vn 0.0000 -0.0000 1.0000
vn -1.0000 0.0000 0.0000
usemtl Tex_0013_0_dds.003
s 1
f 1/1/1 2/2/1 3/3/1
f 1/1/1 3/3/1 4/4/1
f 5/5/2 6/6/2 1/7/2
f 5/5/2 1/7/2 7/8/2
f 8/9/3 4/10/3 3/11/3
f 8/9/3 3/11/3 9/12/3
f 7/13/2 1/14/2 4/15/2
f 7/13/2 4/15/2 8/16/2
f 5/17/4 7/18/4 10/19/4
f 5/17/4 10/19/4 11/20/4
f 6/21/5 5/22/5 11/23/5
f 6/21/5 11/23/5 12/24/5
f 9/25/4 10/26/4 7/8/4
f 9/25/4 7/8/4 8/27/4
f 12/28/1 2/29/1 1/30/1
f 12/28/1 1/30/1 6/31/1
