# 3ds Max Wavefront OBJ Exporter v0.97b - (c)2007 guruware
# File Created: 30.04.2018 18:14:17

mtllib RockSmallBAlt.mtl

#
# object RockSmallBAlt
#

v  -38.8748 -6.9353 7.1057
v  -50.2255 -4.8156 9.8963
v  -49.7840 -4.9965 -7.8457
v  14.4229 -4.0325 35.6968
v  -6.5352 -2.2184 37.4869
v  -5.2272 -4.6950 22.4068
v  -23.9296 -5.7312 14.4608
v  -22.4025 -3.7395 37.1477
v  -36.5906 -5.1043 30.1733
v  -46.6849 -5.9078 23.5315
v  23.8008 -4.2630 15.3558
v  32.7002 -6.4576 38.7566
v  8.4403 -3.9168 17.4971
v  -13.2593 -5.5826 -16.9564
v  -27.4383 -5.5417 -13.9897
v  -40.5143 -6.5731 -11.7134
v  -51.7012 -4.9121 -25.5120
v  50.7541 0.2128 14.2318
v  53.7932 4.6084 10.9400
v  53.5593 5.0200 17.5071
v  35.7321 -2.1372 -7.8148
v  19.9733 -4.9708 -14.1629
v  1.1767 -5.4071 -13.7013
v  25.8818 -2.5424 -27.9592
v  41.4492 2.1304 -4.3543
v  53.4660 14.7887 8.4256
v  54.7242 15.3705 16.8373
v  41.8660 31.9067 7.2115
v  43.0712 30.7823 15.0909
v  34.6003 41.1449 11.3952
v  37.1376 39.9085 19.0657
v  37.3447 39.1166 23.5750
v  39.8427 29.1091 27.7124
v  51.3224 14.2680 33.7471
v  49.9153 3.5391 34.9175
v  46.2736 -2.0361 35.2389
v  46.3512 1.4090 40.0501
v  47.9612 13.5160 39.0047
v  34.8601 28.7728 32.4794
v  32.1608 39.2383 27.7564
v  32.4572 43.8367 21.8311
v  7.1591 29.0846 -34.6963
v  6.4143 45.5285 -31.1973
v  16.1776 44.7696 -25.7568
v  17.3582 50.7386 -20.1618
v  6.5792 52.0536 -25.7328
v  13.6303 54.6126 -6.7814
v  25.3182 50.2228 -3.1331
v  19.3189 51.0306 10.3418
v  32.1044 44.9393 14.2387
v  21.3198 46.6316 23.8407
v  7.8359 50.5369 13.4898
v  -0.2753 54.0048 -11.6876
v  -3.6018 47.5619 -32.5195
v  -3.3156 41.3515 -36.6944
v  -13.0264 36.1521 -39.6091
v  -11.2102 23.3931 -40.5497
v  8.0976 45.4362 27.2824
v  21.9088 40.9191 29.2216
v  26.8507 28.9350 33.2640
v  7.8954 40.4468 32.2409
v  -4.8911 43.1236 28.8941
v  -5.0334 49.2406 11.8257
v  -12.4536 50.9114 -12.2927
v  -23.3098 46.3927 -10.0300
v  -30.9094 36.0928 -31.6291
v  -16.0141 40.1008 -36.4375
v  -31.4367 33.1110 -35.3655
v  -42.1927 31.0532 -29.3535
v  -41.7598 32.3733 -24.7109
v  -38.0278 33.5846 -9.2646
v  -17.4843 42.2701 7.4901
v  -42.2057 22.0794 -30.3975
v  -19.6677 35.1015 -39.0928
v  -31.2288 22.8030 -36.5189
v  -42.6100 9.6170 -33.7062
v  -17.3097 22.9354 -40.1767
v  -30.7613 9.3685 -39.8946
v  -43.0050 -1.0394 -34.4510
v  -52.1337 -1.1081 -28.9089
v  -42.7558 -4.7407 -31.0094
v  -30.5097 -0.2643 -40.6511
v  -20.8069 10.1124 -43.3469
v  -11.9270 10.3892 -43.5503
v  -3.3184 26.6900 -37.9295
v  -18.6436 0.9427 -42.7678
v  -12.3591 1.2608 -43.0834
v  -1.4964 11.9819 -41.2260
v  -30.1160 -3.8756 -37.3698
v  -15.1310 -2.5347 -40.1291
v  -1.8463 0.5243 -42.1211
v  13.9372 10.9956 -37.3910
v  17.8175 29.3027 -27.8617
v  -1.8103 -3.3189 -38.7436
v  23.0035 12.0924 -31.2439
v  14.6027 -0.0028 -38.1202
v  14.9173 -3.9298 -34.2455
v  25.3712 1.2355 -31.9992
v  -51.7571 15.7036 -4.2338
v  -52.6930 8.6322 -5.9883
v  -52.0115 9.5489 13.0255
v  -53.2153 -0.8446 11.3167
v  -52.9519 -1.0540 -6.3816
v  -49.7048 -1.9875 23.9091
v  -48.1027 8.7369 26.9496
v  -46.5029 18.2251 10.0595
v  -51.2359 22.8728 -3.9784
v  -48.8713 26.0455 -16.8727
v  -49.2911 18.2770 -17.7266
v  -53.7766 9.9225 -22.6145
v  -54.7242 -1.1176 -23.6726
v  -41.3079 20.9397 24.7560
v  -45.8975 24.5226 6.3073
v  -39.9466 30.4478 14.5228
v  -51.1845 10.0591 -27.9003
v  -46.7724 20.5752 -23.7412
v  -46.5177 28.4702 -22.8658
v  -44.8499 30.6577 -18.5308
v  -47.3011 28.0807 -5.3409
v  -41.7695 29.8394 3.8496
v  -31.1766 38.6379 0.6299
v  -26.2650 38.4813 16.4574
v  -6.9833 26.9068 33.6725
v  -3.8710 13.8990 41.5666
v  14.6657 13.4914 37.7250
v  -20.0673 24.8601 34.0480
v  -17.2109 35.8767 32.8067
v  -26.8635 33.4637 24.7974
v  -35.9033 36.2877 11.2372
v  -35.1599 32.7975 18.2913
v  -29.6248 22.9365 30.6919
v  -22.0133 11.1050 40.0283
v  -5.7340 2.2378 41.0957
v  16.1649 -0.5312 40.8146
v  33.1461 -3.1746 43.5503
v  -35.3874 9.0652 36.5405
v  -37.1907 21.3408 29.3208
v  -44.1388 8.5349 31.4206
v  -36.8188 -1.0927 34.4850
v  -24.2974 1.0977 40.8224
v  -45.5149 -2.3699 28.0475
v  -16.4644 39.4820 26.9732
v  -5.3189 38.1453 34.0036
v  9.7067 28.8120 34.5366
v  29.7539 12.3755 41.7637
v  30.9762 1.9972 -25.9741
v  30.0263 12.9138 -23.4256
v  41.7693 13.3232 -4.5812
v  33.5515 33.1303 -4.4231
v  26.9063 30.1739 -21.0876
v  28.3667 44.0074 -3.5073
v  21.5716 45.0620 -19.4947
# 152 vertices

vn -0.0623 -0.9975 0.0340
vn -0.2961 -0.9552 -0.0030
vn -0.5016 -0.8647 0.0246
vn -0.0951 -0.9723 0.2138
vn 0.0225 -0.9314 0.3633
vn 0.0125 -0.9970 0.0759
vn 0.0425 -0.9980 0.0460
vn -0.0127 -0.8874 0.4608
vn 0.0934 -0.9923 0.0808
vn -0.0530 -0.9748 0.2167
vn -0.3575 -0.8722 0.3337
vn 0.0655 -0.9976 -0.0203
vn 0.0996 -0.9684 0.2289
vn 0.0161 -0.9998 0.0130
vn 0.0018 -0.9983 -0.0576
vn 0.0265 -0.9977 -0.0619
vn 0.0742 -0.9969 -0.0257
vn -0.0366 -0.9986 -0.0377
vn -0.4743 -0.8175 -0.3267
vn 0.5753 -0.8149 -0.0706
vn 0.9071 -0.3331 -0.2573
vn 0.9471 -0.3065 0.0947
vn 0.4457 -0.8757 -0.1857
vn 0.1109 -0.9932 -0.0368
vn 0.0108 -0.9999 -0.0130
vn 0.4620 -0.7478 -0.4767
vn 0.7926 -0.3398 -0.5063
vn 0.8721 0.0592 -0.4858
vn 0.9763 0.1974 0.0885
vn 0.8223 0.5458 -0.1608
vn 0.7662 0.5628 -0.3103
vn 0.8154 0.5740 0.0753
vn 0.7646 0.6116 -0.2035
vn 0.7700 0.6379 -0.0091
vn 0.7237 0.5752 0.3814
vn 0.6978 0.5503 0.4585
vn 0.8745 0.3040 0.3778
vn 0.8985 -0.2869 0.3323
vn 0.5937 -0.7491 0.2939
vn 0.6134 -0.3156 0.7240
vn 0.4926 0.2868 0.8216
vn 0.3434 0.5128 0.7868
vn 0.3875 0.5758 0.7200
vn 0.5233 0.8210 0.2283
vn 0.3882 0.2348 -0.8912
vn 0.3512 0.4344 -0.8294
vn 0.5775 0.3667 -0.7294
vn 0.5162 0.7402 -0.4309
vn 0.1302 0.8639 -0.4865
vn 0.1475 0.9891 -0.0023
vn 0.6451 0.7530 -0.1297
vn 0.2030 0.9592 0.1968
vn 0.6156 0.7879 -0.0126
vn 0.2950 0.7477 0.5950
vn 0.1705 0.8534 0.4925
vn -0.0580 0.9619 0.2673
vn -0.1555 0.9870 -0.0400
vn -0.0748 0.7873 -0.6120
vn 0.2294 0.3437 -0.9106
vn 0.0035 0.3062 -0.9520
vn 0.0954 0.1580 -0.9828
vn -0.0034 0.8374 0.5466
vn 0.1739 0.5572 0.8120
vn 0.0960 0.4000 0.9115
vn 0.0723 0.4981 0.8641
vn -0.2252 0.8329 0.5055
vn -0.3174 0.9102 0.2660
vn -0.3290 0.9409 -0.0810
vn -0.5139 0.8552 0.0678
vn -0.4125 0.8169 -0.4032
vn -0.2667 0.7342 -0.6244
vn -0.4292 0.4347 -0.7917
vn -0.6640 0.5030 -0.5533
vn -0.5578 0.8206 -0.1244
vn -0.5466 0.8359 0.0500
vn -0.4572 0.8547 0.2460
vn -0.6472 0.2012 -0.7353
vn -0.2406 0.3416 -0.9085
vn -0.3788 0.1521 -0.9129
vn -0.5005 0.1576 -0.8513
vn -0.1543 0.1569 -0.9755
vn -0.3817 0.1499 -0.9121
vn -0.4466 -0.3150 -0.8375
vn -0.7257 -0.2265 -0.6496
vn -0.1871 -0.8922 -0.4111
vn -0.2840 -0.3439 -0.8951
vn -0.1801 0.1240 -0.9758
vn 0.0749 0.0587 -0.9955
vn 0.2750 0.1628 -0.9476
vn -0.0823 -0.3739 -0.9238
vn 0.0411 -0.3267 -0.9442
vn 0.2191 0.1139 -0.9690
vn 0.1769 0.2361 -0.9555
vn 0.2357 0.2403 -0.9417
vn -0.0776 -0.8998 -0.4294
vn -0.0110 -0.8784 -0.4777
vn 0.1420 -0.3125 -0.9392
vn 0.4048 0.1761 -0.8973
vn 0.5589 0.2282 -0.7972
vn 0.0478 -0.8896 -0.4543
vn 0.6099 0.2477 -0.7528
vn 0.3595 -0.3081 -0.8808
vn 0.2073 -0.8880 -0.4105
vn 0.6275 -0.1947 -0.7539
vn -0.9872 0.1575 0.0259
vn -0.9926 0.1213 0.0070
vn -0.9282 0.3180 0.1931
vn -0.9556 -0.2699 0.1183
vn -0.9461 -0.3222 0.0324
vn -0.8529 -0.3058 0.4231
vn -0.8421 0.2447 0.4805
vn -0.8730 0.4067 0.2693
vn -0.9341 0.3340 0.1260
vn -0.9160 0.3736 -0.1462
vn -0.9474 0.2693 -0.1730
vn -0.9299 0.3193 -0.1824
vn -0.9565 -0.2504 -0.1496
vn -0.7438 0.5149 0.4263
vn -0.8285 0.4789 0.2904
vn -0.7567 0.5817 0.2983
vn -0.7567 0.2864 -0.5877
vn -0.8787 0.2755 -0.3898
vn -0.8670 0.4090 -0.2848
vn -0.6124 0.7906 -0.0045
vn -0.6893 0.7169 0.1044
vn -0.6639 0.7318 0.1539
vn -0.3228 0.9383 -0.1244
vn -0.3422 0.9145 0.2160
vn -0.0230 0.2373 0.9712
vn 0.0330 0.2805 0.9593
vn -0.0563 0.2069 0.9767
vn -0.2818 0.3779 0.8819
vn -0.3547 0.4945 0.7935
vn -0.5294 0.6182 0.5810
vn -0.3039 0.9223 -0.2386
vn -0.5420 0.6824 0.4905
vn -0.3437 0.5253 0.7784
vn -0.1895 0.2612 0.9465
vn -0.0123 -0.3355 0.9420
vn -0.1041 -0.3700 0.9232
vn 0.0800 -0.4364 0.8962
vn -0.4105 0.1866 0.8926
vn -0.4880 0.5514 0.6766
vn -0.6324 0.1503 0.7600
vn -0.4164 -0.4356 0.7980
vn -0.1788 -0.2848 0.9417
vn -0.5785 -0.4076 0.7065
vn -0.3681 0.8621 0.3483
vn -0.1148 0.4127 0.9036
vn -0.0078 0.2007 0.9796
vn -0.0269 0.2362 0.9713
vn 0.8079 -0.2184 -0.5473
vn 0.7681 0.2486 -0.5901
vn 0.7990 0.1783 -0.5744
vn 0.8107 0.4069 -0.4210
vn 0.7651 0.2611 -0.5887
vn 0.8514 0.4337 -0.2951
vn 0.7774 0.4136 -0.4739
# 158 vertex normals

vt 0.1534 -0.7028 -0.7028
vt 0.1291 -0.7865 -0.7865
vt 0.2579 -0.7755 -0.7755
vt 0.0227 -0.3177 -0.3177
vt -0.0131 -0.4725 -0.4725
vt 0.0931 -0.4402 -0.4402
vt 0.1281 -0.5838 -0.5838
vt -0.0351 -0.5905 -0.5905
vt -0.0141 -0.7063 -0.7063
vt 0.0260 -0.7858 -0.7858
vt 0.2196 -0.2608 -0.2608
vt 0.0587 -0.1788 -0.1788
vt 0.1563 -0.3547 -0.3547
vt 0.3703 -0.5175 -0.5175
vt 0.3307 -0.6169 -0.6169
vt 0.2906 -0.7071 -0.7071
vt 0.3808 -0.8132 -0.8132
vt 0.2622 -0.0676 -0.0676
vt 0.2899 -0.0305 -0.0305
vt 0.2405 -0.0220 -0.0220
vt 0.4419 -0.1546 -0.1546
vt 0.4333 -0.2810 -0.2810
vt 0.3814 -0.4089 -0.4089
vt 0.5979 -0.2223 -0.2223
vt 0.4183 -0.0987 -0.0987
vt 0.3217 0.0394 0.0394
vt 0.2665 0.0520 0.0520
vt 0.3727 0.1805 0.1805
vt 0.3119 0.1875 0.1875
vt 0.3715 0.2733 0.2733
vt 0.3082 0.2739 0.2739
vt 0.2708 0.2863 0.2863
vt 0.2182 0.2102 0.2102
vt 0.1455 0.0728 0.0728
vt 0.1069 -0.0102 -0.0102
vt 0.1017 -0.0700 -0.0700
vt 0.0751 0.0285 0.0285
vt 0.0517 -0.0055 -0.0055
vt 0.1142 0.0969 0.0969
vt 0.1786 0.2252 0.2252
vt 0.2307 0.3161 0.3161
vt 0.2861 0.3514 0.3514
vt 0.8460 0.3606 0.3606
vt 0.7341 0.3155 0.3155
vt 0.7063 0.2347 0.2347
vt 0.6491 0.2106 0.2106
vt 0.6833 0.3085 0.3085
vt 0.5449 0.3588 0.3588
vt 0.5072 0.2701 0.2701
vt 0.4154 0.4082 0.4082
vt 0.3563 0.3156 0.3156
vt 0.2591 0.4134 0.4134
vt 0.3160 0.4474 0.4474
vt 0.4202 0.4980 0.4980
vt 0.6040 0.4495 0.4495
vt 0.7358 0.4028 0.4028
vt 0.7704 0.3990 0.3990
vt 0.8016 0.4795 0.4795
vt 0.8926 0.5060 0.5060
vt 0.3442 0.5517 0.5517
vt 0.2804 0.4919 0.4919
vt 0.1407 0.4684 0.4684
vt -0.0361 0.5394 0.5394
vt 0.1845 0.5327 0.5327
vt 0.3183 0.5822 0.5822
vt 0.3711 0.6636 0.6636
vt 0.4598 0.5874 0.5874
vt 0.6289 0.5382 0.5382
vt 0.6518 0.6237 0.6237
vt 0.8001 0.6390 0.6390
vt 0.7674 0.5137 0.5137
vt 0.8368 0.6326 0.6326
vt 0.8575 0.7638 0.7638
vt 0.8111 0.7666 0.7666
vt 0.6951 0.7603 0.7603
vt 0.5285 0.6764 0.6764
vt 0.9150 0.7842 0.7842
vt 0.8138 0.5306 0.5306
vt 0.9027 0.6691 0.6691
vt 0.9973 0.8276 0.8276
vt 0.8976 0.5524 0.5524
vt 0.9953 0.7064 0.7064
vt 1.0672 0.8602 0.8602
vt 1.0702 0.9181 0.9181
vt 1.1063 0.9278 0.9278
vt 1.1029 0.8590 0.8590
vt 1.0591 0.7348 0.7348
vt 0.9695 0.6222 0.6222
vt 0.9767 0.5590 0.5590
vt 0.8690 0.4418 0.4418
vt 1.0366 0.6376 0.6376
vt 1.0373 0.5916 0.5916
vt 0.9716 0.4821 0.4821
vt 1.0940 0.7420 0.7420
vt 1.0720 0.6171 0.6171
vt 1.0487 0.5154 0.5154
vt 0.9855 0.3690 0.3690
vt 0.8213 0.2690 0.2690
vt 1.0867 0.5161 0.5161
vt 0.9562 0.2964 0.2964
vt 1.0602 0.3937 0.3937
vt 1.0985 0.3846 0.3846
vt 1.0421 0.3053 0.3053
vt 1.0838 0.2851 0.2851
vt 0.7440 0.9412 0.9412
vt 0.7622 0.9933 0.9933
vt 0.6394 1.0515 1.0515
vt 0.6629 1.1269 1.1269
vt 0.7748 1.0643 1.0643
vt 0.6225 1.2143 1.2143
vt 0.5858 1.1405 1.1405
vt 0.6385 0.9714 0.9714
vt 0.7179 0.8939 0.8939
vt 0.8082 0.8809 0.8809
vt 0.8421 0.9233 0.9233
vt 0.8817 0.9906 0.9906
vt 0.9001 1.0697 1.0697
vt 0.5548 1.0428 1.0428
vt 0.6368 0.9157 0.9157
vt 0.5600 0.9397 0.9397
vt 0.6340 1.2506 1.2506
vt 0.6808 1.1611 1.1611
vt 0.7927 1.0999 1.0999
vt 0.9206 1.1024 1.1024
vt 0.9420 1.0719 1.0719
vt 0.9240 0.9910 0.9910
vt 0.8954 0.9055 0.9055
vt 0.8578 0.8613 0.8613
vt 0.8282 0.8157 0.8157
vt 0.7154 0.8432 0.8432
vt 0.6324 0.8662 0.8662
vt 0.5978 0.7725 0.7725
vt 0.4934 0.8347 0.8347
vt 0.8683 0.8235 0.8235
vt 0.9137 0.8534 0.8534
vt 0.9955 0.8947 0.8947
vt 0.2854 0.7745 0.7745
vt 0.1723 0.8544 0.8544
vt 0.0986 0.7279 0.7279
vt 0.3226 0.8728 0.8728
vt 0.3862 0.7724 0.7724
vt 0.4285 0.8612 0.8612
vt 0.5422 0.9004 0.9004
vt 0.4769 0.9385 0.9385
vt 0.3744 0.9562 0.9562
vt 0.2585 0.9724 0.9724
vt 0.0868 0.9406 0.9406
vt -0.0134 0.7958 0.7958
vt -0.0897 0.6805 0.6805
vt 0.3268 1.0559 1.0559
vt 0.4499 1.0322 1.0322
vt 0.3837 1.1168 1.1168
vt 0.2658 1.1415 1.1415
vt 0.1911 1.0480 1.0480
vt 0.3222 1.2117 1.2117
vt -0.1267 0.7141 0.7141
vt -0.1759 0.6072 0.6072
vt -0.0379 0.8400 0.8400
vt 0.0580 0.9741 0.9741
vt 0.1505 1.0810 1.0810
vt 0.2418 1.1811 1.1811
vt 0.3134 1.2546 1.2546
vt 0.4196 0.7468 0.7468
vt 0.3423 0.6962 0.6962
vt 0.2297 0.6542 0.6542
vt 0.0349 0.6288 0.6288
vt -0.1297 0.5819 0.5819
vt 0.5792 -0.1636 -0.1636
vt 0.5797 -0.0743 -0.0743
vt 0.4320 -0.0172 -0.0172
vt 0.4698 0.1344 0.1344
vt 0.5835 0.0610 0.0610
vt 0.6478 -0.1043 -0.1043
vt 0.6300 -0.1888 -0.1888
vt 0.4859 0.2227 0.2227
vt 0.6100 0.1791 0.1791
vt 0.6656 0.1525 0.1525
vt 0.6631 0.0324 0.0324
vt 0.5258 0.9483 0.9483
vt 0.5278 1.0676 1.0676
vt 0.5562 1.1716 1.1716
vt 0.5929 1.2464 1.2464
vt 0.4256 -0.7499 -0.7499
vt 0.4920 -0.6671 -0.6671
vt 0.5335 -0.5589 -0.5589
vt 0.5570 -0.4570 -0.4570
vt 0.5777 -0.3239 -0.3239
# 187 texture coords

g RockSmallBAlt
usemtl RockHighRes
s 1
f 1/1/1 2/2/2 3/3/3 
s 2
f 4/4/4 5/5/5 6/6/6 
s 3
f 7/7/7 6/6/6 5/5/5 
s 4
f 5/5/5 8/8/8 7/7/9 
s 5
f 1/1/1 7/7/7 8/8/8 
s 6
f 8/8/8 9/9/10 1/1/1 
s 7
f 2/2/2 1/1/1 9/9/10 
s 8
f 9/9/10 10/10/11 2/2/2 
s 9
f 11/11/12 12/12/13 4/4/4 
s 10
f 4/4/4 13/13/14 11/11/12 
s 11
f 6/6/6 13/13/14 4/4/4 
s 12
f 13/13/14 6/6/6 14/14/15 
s 13
f 14/14/15 6/6/6 7/7/7 
s 14
f 7/7/7 15/15/16 14/14/15 
s 15
f 15/15/16 7/7/7 1/1/1 
s 16
f 1/1/17 16/16/18 15/15/17 
s 17
f 3/3/3 16/16/18 1/1/1 
s 18
f 16/16/18 3/3/3 17/17/19 
s 19
f 18/18/20 19/19/21 20/20/22 
s 20
f 19/19/21 18/18/20 21/21/23 
s 21
f 21/21/23 18/18/20 11/11/12 
s 22
f 11/11/12 22/22/24 21/21/23 
s 23
f 23/23/25 22/22/24 11/11/12 
s 24
f 11/11/12 13/13/14 23/23/25 
s 25
f 14/14/15 23/23/25 13/13/14 
s 26
f 24/24/26 21/21/23 22/22/24 
s 27
f 25/25/27 21/21/23 24/24/26 
s 28
f 21/21/23 25/25/27 19/19/21 
s 29
f 26/26/28 19/19/21 25/25/27 
s 30
f 20/20/22 19/19/21 26/26/28 
s 31
f 26/26/28 27/27/29 20/20/22 
s 32
f 27/27/30 26/26/30 28/28/31 
s 33
f 28/28/31 29/29/32 27/27/29 
s 34
f 29/29/32 28/28/31 30/30/33 
s 35
f 30/30/33 31/31/34 29/29/32 
s 36
f 29/29/32 31/31/34 32/32/35 
s 37
f 32/32/35 33/33/36 29/29/32 
s 38
f 27/27/29 29/29/32 33/33/36 
s 39
f 33/33/36 34/34/37 27/27/29 
s 40
f 20/20/22 27/27/29 34/34/37 
s 41
f 34/34/37 35/35/38 20/20/22 
s 42
f 18/18/20 20/20/22 35/35/38 
s 43
f 35/35/38 36/36/39 18/18/20 
s 44
f 11/11/12 18/18/20 36/36/39 
s 45
f 36/36/39 12/12/13 11/11/12 
s 46
f 37/37/40 36/38/39 35/35/38 
s 47
f 37/37/40 35/35/38 34/34/37 
s 48
f 34/34/37 38/39/41 37/37/40 
s 49
f 38/39/41 34/34/37 33/33/36 
s 50
f 33/33/36 39/40/42 38/39/41 
s 51
f 39/40/42 33/33/36 32/32/35 
s 52
f 32/32/35 40/41/43 39/40/42 
s 53
f 32/32/35 41/42/44 40/41/43 
s 54
f 42/43/45 43/44/46 44/45/47 
s 55
f 45/46/48 44/45/47 43/44/46 
s 56
f 43/44/46 46/47/49 45/46/48 
s 57
f 45/46/48 46/47/49 47/48/50 
s 58
f 47/48/50 48/49/51 45/46/48 
s 59
f 48/49/51 47/48/50 49/50/52 
s 60
f 49/50/52 50/51/53 48/49/51 
s 61
f 41/42/44 50/51/53 49/50/52 
s 62
f 31/31/34 50/51/53 41/42/44 
s 63
f 41/42/44 32/32/35 31/31/34 
s 64
f 40/52/43 41/42/54 51/53/55 
s 65
f 49/50/52 51/53/55 41/42/44 
s 66
f 51/53/55 49/50/52 52/54/56 
s 67
f 52/54/56 49/50/52 47/48/50 
s 68
f 47/48/50 53/55/57 52/54/56 
s 69
f 53/55/57 47/48/50 46/47/49 
s 70
f 46/47/49 54/56/58 53/55/57 
s 71
f 55/57/59 54/56/58 46/47/49 
s 72
f 54/56/58 55/57/59 56/58/60 
s 73
f 57/59/61 56/58/60 55/57/59 
s 74
f 52/54/56 58/60/62 51/53/55 
s 75
f 59/61/63 51/53/55 58/60/62 
s 76
f 51/53/55 59/61/63 40/52/43 
s 77
f 39/62/42 40/52/43 59/61/63 
s 78
f 38/63/41 39/62/42 60/64/64 
s 79
f 59/61/63 60/64/64 39/62/42 
s 80
f 60/64/64 59/61/63 61/65/65 
s 81
f 58/60/62 61/65/65 59/61/63 
s 82
f 61/65/65 58/60/62 62/66/66 
s 83
f 62/66/66 58/60/62 52/54/56 
s 84
f 52/54/56 63/67/67 62/66/66 
s 85
f 63/67/67 52/54/56 53/55/57 
s 86
f 53/55/57 64/68/68 63/67/67 
s 87
f 64/68/68 53/55/57 54/56/58 
s 88
f 63/67/67 64/68/68 65/69/69 
s 89
f 66/70/70 65/69/69 64/68/68 
s 90
f 64/68/68 67/71/71 66/70/70 
s 91
f 68/72/72 66/70/70 67/71/71 
s 92
f 66/70/70 68/72/72 69/73/73 
s 93
f 69/73/73 70/74/74 66/70/70 
s 94
f 65/69/69 66/70/70 70/74/74 
s 95
f 70/74/74 71/75/75 65/69/69 
s 96
f 72/76/76 65/69/69 71/75/75 
s 97
f 65/69/69 72/76/76 63/67/67 
s 98
f 62/66/66 63/67/67 72/76/76 
s 99
f 73/77/77 69/73/73 68/72/72 
s 100
f 54/56/58 67/71/71 64/68/68 
s 101
f 56/58/60 67/71/71 54/56/58 
s 102
f 74/78/78 67/71/71 56/58/60 
s 103
f 67/71/71 74/78/78 68/72/72 
s 104
f 75/79/79 68/72/72 74/78/78 
s 105
f 68/72/72 75/79/79 73/77/77 
s 106
f 76/80/80 73/77/77 75/79/79 
s 107
f 74/78/78 56/58/60 57/59/61 
s 108
f 57/59/61 77/81/81 74/78/78 
s 109
f 74/78/78 77/81/81 75/79/79 
s 110
f 78/82/82 75/79/79 77/81/81 
s 111
f 75/79/79 78/82/82 76/80/80 
s 112
f 79/83/83 76/80/80 78/82/82 
s 113
f 76/80/80 79/83/83 80/84/84 
s 114
f 17/85/19 80/84/84 79/83/83 
s 115
f 79/83/83 81/86/85 17/85/19 
s 116
f 81/86/85 79/83/83 82/87/86 
s 117
f 77/81/81 83/88/87 78/82/82 
s 118
f 84/89/88 83/88/87 77/81/81 
s 119
f 77/81/81 57/59/61 84/89/88 
s 120
f 84/89/88 57/59/61 85/90/89 
s 121
f 55/57/59 85/90/89 57/59/61 
s 122
f 78/82/82 82/87/86 79/83/83 
s 123
f 82/87/86 78/82/82 83/88/87 
s 124
f 83/88/87 86/91/90 82/87/86 
s 125
f 87/92/91 86/91/90 83/88/87 
s 126
f 83/88/87 84/89/88 87/92/91 
s 127
f 87/92/91 84/89/88 88/93/92 
s 128
f 85/90/93 88/93/93 84/89/93 
s 129
f 88/93/92 85/90/89 42/43/94 
s 130
f 43/44/46 42/43/45 85/90/89 
s 131
f 85/90/89 55/57/59 43/44/46 
s 132
f 46/47/49 43/44/46 55/57/59 
s 133
f 82/87/86 89/94/95 81/86/85 
s 134
f 89/94/95 82/87/86 86/91/90 
s 135
f 86/91/90 90/95/96 89/94/95 
s 136
f 87/92/91 90/95/96 86/91/90 
s 137
f 90/95/96 87/92/91 91/96/97 
s 138
f 88/93/92 91/96/97 87/92/91 
s 139
f 91/96/97 88/93/92 92/97/98 
s 140
f 42/43/45 92/97/98 88/93/92 
s 141
f 92/97/98 42/43/45 93/98/99 
s 142
f 44/45/47 93/98/99 42/43/45 
s 143
f 91/96/97 94/99/100 90/95/96 
s 144
f 93/98/99 95/100/101 92/97/98 
s 145
f 96/101/102 92/97/98 95/100/101 
s 146
f 92/97/98 96/101/102 91/96/97 
s 147
f 94/99/100 91/96/97 96/101/102 
s 148
f 96/101/102 97/102/103 94/99/100 
s 149
f 97/102/103 96/101/102 98/103/104 
s 150
f 98/103/104 24/104/26 97/102/103 
s 151
f 95/100/101 98/103/104 96/101/102 
s 152
f 99/105/105 100/106/106 101/107/107 
s 153
f 102/108/108 101/107/107 100/106/106 
s 154
f 100/106/106 103/109/109 102/108/108 
s 155
f 101/107/107 102/108/108 104/110/110 
s 156
f 104/110/110 105/111/111 101/107/107 
s 157
f 106/112/112 101/107/107 105/111/111 
s 158
f 101/107/107 106/112/112 99/105/105 
s 159
f 107/113/113 99/105/105 106/112/112 
s 160
f 99/105/105 107/113/113 108/114/114 
s 161
f 108/114/114 109/115/115 99/105/105 
s 162
f 100/106/106 99/105/105 109/115/115 
s 163
f 109/115/115 110/116/116 100/106/106 
s 164
f 103/109/109 100/106/106 110/116/116 
s 165
f 110/116/116 111/117/117 103/109/109 
s 166
f 105/111/111 112/118/118 106/112/112 
s 167
f 113/119/119 106/112/112 112/118/118 
s 168
f 106/112/112 113/119/119 107/113/113 
s 169
f 112/118/118 114/120/120 113/119/119 
s 170
f 10/121/11 104/110/110 102/108/108 
s 171
f 102/108/108 2/122/2 10/121/11 
s 172
f 2/122/2 102/108/108 103/109/109 
s 173
f 103/109/109 3/123/3 2/122/2 
s 174
f 3/123/3 103/109/109 111/117/117 
s 175
f 111/117/117 17/124/19 3/123/3 
s 176
f 80/125/84 17/124/19 111/117/117 
s 177
f 80/125/84 111/117/117 110/116/116 
s 178
f 110/116/116 115/126/121 80/125/84 
s 179
f 115/126/121 110/116/116 109/115/115 
s 180
f 109/115/115 116/127/122 115/126/121 
s 181
f 116/127/122 109/115/115 108/114/114 
s 182
f 108/114/114 117/128/123 116/127/122 
s 183
f 108/114/114 118/129/124 117/128/123 
s 184
f 118/129/124 108/114/114 107/113/113 
s 185
f 107/113/113 119/130/125 118/129/124 
s 186
f 119/130/125 107/113/113 113/119/119 
s 187
f 113/119/119 120/131/126 119/130/125 
s 188
f 119/130/125 120/131/126 121/132/127 
s 189
f 122/133/128 121/132/127 120/131/126 
s 190
f 121/132/127 71/75/75 119/130/125 
s 191
f 118/129/124 119/130/125 71/75/75 
s 192
f 71/75/75 70/74/74 118/129/124 
s 193
f 117/134/123 118/129/124 70/74/74 
s 194
f 70/74/74 69/73/73 117/134/123 
s 195
f 116/135/122 117/134/123 69/73/73 
s 196
f 69/73/73 73/77/77 116/135/122 
s 197
f 115/136/121 116/135/122 73/77/77 
s 198
f 73/77/77 76/80/80 115/136/121 
s 199
f 80/84/84 115/136/121 76/80/80 
s 200
f 123/137/129 124/138/130 125/139/131 
s 201
f 124/138/130 123/137/129 126/140/132 
s 202
f 127/141/133 126/140/132 123/137/129 
s 203
f 126/140/132 127/141/133 128/142/134 
s 204
f 122/133/128 128/142/134 127/141/133 
s 205
f 128/142/134 122/133/128 129/143/135 
s 206
f 120/131/126 129/143/135 122/133/128 
s 207
f 129/143/135 130/144/136 128/142/134 
s 208
f 131/145/137 128/142/134 130/144/136 
s 209
f 128/142/134 131/145/137 126/140/132 
s 210
f 132/146/138 126/140/132 131/145/137 
s 211
f 126/140/132 132/146/138 124/138/130 
s 212
f 133/147/139 124/138/130 132/146/138 
s 213
f 124/138/130 133/147/139 134/148/140 
s 214
f 134/148/140 125/139/131 124/138/130 
s 215
f 125/139/131 134/148/140 135/149/141 
s 216
f 131/145/137 136/150/142 132/146/138 
s 217
f 136/150/142 131/145/137 137/151/143 
s 218
f 130/144/136 137/151/143 131/145/137 
s 219
f 137/151/143 138/152/144 136/150/142 
s 220
f 139/153/145 136/150/142 138/152/144 
s 221
f 136/150/142 139/153/145 140/154/146 
s 222
f 140/154/146 132/146/138 136/150/142 
s 223
f 132/146/138 140/154/146 133/147/139 
s 224
f 138/152/144 141/155/147 139/153/145 
s 225
f 135/149/141 12/156/13 36/157/39 
s 226
f 12/156/13 135/149/141 134/148/140 
s 227
f 134/148/140 4/158/4 12/156/13 
s 228
f 4/158/4 134/148/140 133/147/139 
s 229
f 133/147/139 5/159/5 4/158/4 
s 230
f 5/159/5 133/147/139 140/154/146 
s 231
f 140/154/146 8/160/8 5/159/5 
s 232
f 8/160/8 140/154/146 139/153/145 
s 233
f 139/153/145 9/161/10 8/160/8 
s 234
f 9/161/10 139/153/145 141/155/147 
s 235
f 141/155/147 10/162/11 9/161/10 
s 236
f 121/132/127 122/133/128 142/163/148 
s 237
f 127/141/133 142/163/148 122/133/128 
s 238
f 142/163/148 127/141/133 143/164/149 
s 239
f 123/137/129 143/164/149 127/141/133 
s 240
f 143/164/149 123/137/129 144/165/150 
s 241
f 125/139/131 144/165/150 123/137/129 
s 242
f 144/165/150 125/139/131 145/166/151 
s 243
f 135/149/141 145/166/151 125/139/131 
s 244
f 145/166/151 135/149/141 37/167/40 
s 245
f 36/157/39 37/167/40 135/149/141 
s 246
f 37/167/40 38/63/41 145/166/151 
s 247
f 60/64/64 145/166/151 38/63/41 
s 248
f 145/166/151 60/64/64 144/165/150 
s 249
f 61/65/65 144/165/150 60/64/64 
s 250
f 144/165/150 61/65/65 143/164/149 
s 251
f 62/66/66 143/164/149 61/65/65 
s 252
f 143/164/149 62/66/66 142/163/148 
s 253
f 72/76/76 142/163/148 62/66/66 
s 254
f 142/163/148 72/76/76 121/132/127 
s 255
f 71/75/75 121/132/127 72/76/76 
s 256
f 146/168/152 147/169/153 148/170/154 
s 257
f 149/171/155 148/170/154 147/169/153 
s 258
f 147/169/153 150/172/156 149/171/155 
s 259
f 95/173/101 147/169/153 146/168/152 
s 260
f 146/168/152 98/174/104 95/173/101 
s 261
f 146/168/152 24/24/26 98/174/104 
s 262
f 24/24/26 146/168/152 25/25/27 
s 263
f 148/170/154 25/25/27 146/168/152 
s 264
f 25/25/27 148/170/154 26/26/28 
s 265
f 28/28/31 26/26/28 148/170/154 
s 266
f 148/170/154 149/171/155 28/28/31 
s 267
f 30/30/33 28/28/31 149/171/155 
s 268
f 149/171/155 151/175/157 30/30/33 
s 269
f 151/175/157 149/171/155 150/172/156 
s 270
f 150/172/156 152/176/158 151/175/157 
s 271
f 31/31/34 30/30/33 50/51/53 
s 272
f 50/51/53 30/30/33 151/175/157 
s 273
f 151/175/157 48/49/51 50/51/53 
s 274
f 48/49/51 151/175/157 152/176/158 
s 275
f 152/176/158 45/46/48 48/49/51 
s 276
f 44/177/47 45/46/48 152/176/158 
s 277
f 44/177/47 152/176/158 150/172/156 
s 278
f 150/172/156 93/178/99 44/177/47 
s 279
f 93/178/99 150/172/156 147/169/153 
s 280
f 147/169/153 95/173/101 93/178/99 
s 281
f 120/131/126 113/119/119 114/120/120 
s 282
f 114/120/120 129/143/135 120/131/126 
s 283
f 130/179/136 129/143/135 114/120/120 
s 284
f 130/179/136 114/120/120 112/118/118 
s 285
f 112/118/118 137/180/143 130/179/136 
s 286
f 137/180/143 112/118/118 105/111/111 
s 287
f 105/111/111 138/181/144 137/180/143 
s 288
f 138/181/144 105/111/111 104/110/110 
s 289
f 104/110/110 141/182/147 138/181/144 
s 290
f 104/110/110 10/121/11 141/182/147 
s 291
f 17/17/19 81/183/85 16/16/18 
s 292
f 15/15/16 16/16/18 81/183/85 
s 293
f 81/183/85 89/184/95 15/15/16 
s 294
f 15/15/16 89/184/95 90/185/96 
s 295
f 90/185/96 14/14/15 15/15/16 
s 296
f 14/14/15 90/185/96 94/186/100 
s 297
f 94/186/100 23/23/25 14/14/15 
s 298
f 23/23/25 94/186/100 97/187/103 
s 299
f 97/187/103 22/22/24 23/23/25 
s 300
f 22/22/24 97/187/103 24/24/26 
# 300 faces

